<?xml version="1.0" encoding="utf-8"?>
<!-- Generator: Adobe Illustrator 22.1.0, SVG Export Plug-In . SVG Version: 6.00 Build 0)  -->
<svg version="1.1" id="Ebene_1" xmlns="http://www.w3.org/2000/svg" xmlns:xlink="http://www.w3.org/1999/xlink" x="0px" y="0px"
	 width="412.781px" height="110px" viewBox="0 0 412.781 110" enable-background="new 0 0 412.781 110" xml:space="preserve">
<g>
	<defs>
		<rect id="SVGID_1_" x="10.444" y="16.78" width="391.896" height="92.795"/>
	</defs>
	<clipPath id="SVGID_2_">
		<use xlink:href="#SVGID_1_"  overflow="visible"/>
	</clipPath>
</g>
<g>
	<defs>
		<rect id="SVGID_3_" x="10.444" y="16.78" width="391.896" height="92.795"/>
	</defs>
	<clipPath id="SVGID_4_">
		<use xlink:href="#SVGID_3_"  overflow="visible"/>
	</clipPath>
</g>
<g>
	<defs>
		<rect id="SVGID_5_" x="10.444" y="16.78" width="391.896" height="92.795"/>
	</defs>
	<clipPath id="SVGID_6_">
		<use xlink:href="#SVGID_5_"  overflow="visible"/>
	</clipPath>
</g>
<g>
	<defs>
		<rect id="SVGID_7_" x="10.444" y="16.78" width="391.896" height="92.795"/>
	</defs>
	<clipPath id="SVGID_8_">
		<use xlink:href="#SVGID_7_"  overflow="visible"/>
	</clipPath>
</g>
<g>
	<defs>
		<rect id="SVGID_9_" x="10.444" y="16.78" width="391.896" height="92.795"/>
	</defs>
	<clipPath id="SVGID_10_">
		<use xlink:href="#SVGID_9_"  overflow="visible"/>
	</clipPath>
</g>
<path fill="#8EBAE5" d="M325.801,86.193h4.445V76.87h2.376c1.791,0,2.563,1.05,2.625,2.779l0.123,4.229
	c0.031,0.863,0.124,1.697,0.556,2.315h4.815v-0.185c-0.833-0.433-0.957-1.636-0.987-3.951c-0.062-4.662-0.525-6.329-3.55-6.73
	v-0.062c2.5-0.524,3.674-2.5,3.674-5.433c0-3.767-2.223-5.681-5.866-5.681h-8.211V86.193z M330.246,67.424h2.099
	c2.006,0,3.088,1.019,3.088,3.057c0,2.376-1.205,3.302-3.335,3.302h-1.852V67.424z"/>
<path fill="#8EBAE5" d="M260.264,64.152v15.373c0,5.896,3.426,7.1,7.038,7.1c3.611,0,7.039-1.481,7.039-7.1V64.152h-4.445v15.373
	c0,2.192-0.525,3.828-2.594,3.828c-2.068,0-2.593-1.636-2.593-3.828V64.152H260.264z"/>
<polygon fill="#8EBAE5" points="275.429,64.152 275.429,86.193 279.504,86.193 279.504,70.758 279.565,70.758 284.998,86.193 
	290.061,86.193 290.061,64.152 285.986,64.152 285.986,79.247 285.925,79.247 280.553,64.152 "/>
<rect x="291.204" y="64.152" fill="#8EBAE5" width="4.445" height="22.041"/>
<polygon fill="#8EBAE5" points="295.954,64.152 301.016,86.193 306.727,86.193 311.789,64.152 307.19,64.152 303.918,80.451 
	303.826,80.451 300.708,64.152 "/>
<polygon fill="#8EBAE5" points="312.185,64.152 312.185,86.193 324.811,86.193 324.811,82.55 316.63,82.55 316.63,76.622 
	324.04,76.622 324.04,72.98 316.63,72.98 316.63,67.795 324.502,67.795 324.502,64.152 "/>
<path fill="#8EBAE5" d="M340.246,79.309v0.895c0,4.076,1.975,6.422,7.008,6.422c4.815,0,7.655-2.1,7.655-6.762
	c0-2.685-0.865-4.382-4.199-5.834l-3.426-1.481c-1.883-0.803-2.284-1.636-2.284-2.994c0-1.296,0.525-2.563,2.531-2.563
	c1.697,0,2.408,1.204,2.408,3.273h4.26v-0.618c0-4.229-2.872-5.927-6.823-5.927c-4.198,0-6.821,2.192-6.821,6.482
	c0,3.674,1.821,5.311,5.772,6.668c2.933,1.019,3.952,1.76,3.952,3.767c0,1.852-1.298,2.716-2.655,2.716
	c-2.347,0-2.933-1.327-2.933-3.395v-0.649H340.246z"/>
<rect x="355.49" y="64.152" fill="#8EBAE5" width="4.445" height="22.041"/>
<polygon fill="#8EBAE5" points="383.024,64.152 379.937,72.672 379.875,72.672 376.974,64.152 360.518,64.152 360.518,67.795 
	365.333,67.795 365.333,86.193 369.779,86.193 369.779,67.795 373.528,67.795 377.683,77.519 377.683,86.193 382.129,86.193 
	382.129,77.519 387.84,64.152 "/>
<path fill="#00549F" d="M221.215,62.147h-0.282h-7.084v-2.495V40.171v-0.163h7.069h0.015h4.995c3.276-0.001,6.1,2.12,7.022,4.931
	c0.853,2.605,0.124,5.434-1.802,7.449c0.256,0.693,0.506,1.236,0.743,1.859c0.535,1.233,1.024,2.466,1.559,3.683l1.753,4.217h-0.045
	h-7.424c0,0.004-0.06-0.178-0.119-0.253c-0.297-0.652-0.565-1.351-0.861-2.004l-1.797-4.262c-0.713-1.722-1.426-3.35-2.138-5.072
	c0.889-0.024,1.554,0.143,2.412-0.252c0.604-0.297,1.518-1.035,1.542-2.449c-0.024-0.701-0.218-1.232-0.681-1.785
	c-0.466-0.513-1.139-0.894-2.016-0.906c0,0-2.862-0.001-2.861,0V62.147z"/>
<path fill="#00549F" d="M298.15,40.008v22.139h-5.751h-1.615V53.12h-0.687h-4.409h-0.061v9.027c-1.336,0-2.776-0.014-4.112,0h-3.253
	V45.131h-5.152v0.534v1.603v7.291v7.588h-0.059h-7.307v-9.176v-0.357v-7.483h-5.196v8.033v8.983h-7.587
	c-1.322-3.192-2.717-6.414-4.009-9.592c-0.149-0.668-0.297-1.337-0.49-1.99v11.582h-7.603c-1.507-3.504-2.955-6.938-4.458-10.494
	c-0.52-1.232-0.947-2.234-1.485-3.515l-0.074-0.168l-1.17-2.747l-1.676-3.923c-0.147-0.445-0.384-0.847-0.534-1.292h7.586
	c1.559,3.786,3.132,7.528,4.766,11.255l0.045,0.089c-0.059-0.431-0.194-0.98-0.268-1.395v-6.608c0.014-1.055,0-2.258,0-3.341h7.602
	c0.096,0.241,0.149,0.371,0.223,0.565c0.891,2.093,1.738,4.172,2.629,6.25l1.99,4.529c-0.045-0.476-0.149-0.935-0.209-1.395v-9.949
	h0.609h5.168h18.709h5.315v1.381v6.608h0.357h4.8v-7.989h3.842H298.15z"/>
<path fill="#8EBAE5" d="M319.515,53.805l2.14-9.954h0.062l2.14,9.954H319.515z M304.756,53.805l2.139-9.954h0.062l2.14,9.954
	H304.756z M324.446,40.006h-5.52l-4.62,17.451l-4.62-17.451h-5.52l-5.861,22.141h4.652l1.023-4.682h5.893l1.022,4.682h6.822
	l1.023-4.682h5.892l1.023,4.682h4.652L324.446,40.006z"/>
<path fill="#8EBAE5" d="M343.606,47.56c0-3.21-0.462-7.872-6.822-7.872c-6.667,0-7.502,4.754-7.502,11.453
	c0,6.698,0.835,11.452,7.502,11.452c5.834,0,7.007-4.105,7.007-8.859h-4.445c0,4.754-1.173,5.587-2.778,5.587
	c-1.914,0-2.84-1.204-2.84-7.872c0-6.235,0.525-8.488,2.778-8.488c2.006,0,2.655,1.389,2.655,4.599H343.606z"/>
<polygon fill="#8EBAE5" points="344.669,62.147 349.133,62.147 349.133,52.318 354.343,52.318 354.343,62.147 358.808,62.147 
	358.808,40.008 354.343,40.008 354.343,48.474 349.133,48.474 349.133,40.008 344.669,40.008 "/>
<polygon fill="#8EBAE5" points="359.776,40.004 359.776,62.147 372.461,62.147 372.461,58.488 364.242,58.488 364.242,52.533 
	371.686,52.533 371.686,48.873 364.242,48.873 364.242,43.663 372.15,43.663 372.15,40.004 "/>
<polygon fill="#8EBAE5" points="373.124,40.008 373.124,62.147 377.217,62.147 377.217,46.643 377.278,46.643 382.736,62.147 
	387.821,62.147 387.821,40.008 383.728,40.008 383.728,55.17 383.666,55.17 378.271,40.008 "/>
<rect x="198.838" y="39.978" fill="#00549F" width="1.023" height="46.398"/>
<path fill="#00549F" d="M176.405,86.376h1.412v-3.652c0-0.607,0.249-0.91,0.747-0.91c0.212,0,0.365,0.056,0.46,0.168
	c0.095,0.113,0.143,0.312,0.143,0.599v3.795h1.412v-4.082c0-0.552-0.121-0.951-0.363-1.197c-0.242-0.245-0.588-0.368-1.038-0.368
	c-0.307,0-0.58,0.064-0.819,0.189c-0.238,0.126-0.433,0.326-0.583,0.599h-0.02v-0.645h-1.351V86.376z M172.678,82.847
	c0.014-0.239,0.047-0.443,0.098-0.614c0.051-0.171,0.125-0.304,0.225-0.399c0.099-0.095,0.237-0.143,0.414-0.143
	c0.286,0,0.484,0.15,0.593,0.45c0.11,0.3,0.164,0.795,0.164,1.483c0,0.689-0.054,1.184-0.164,1.484
	c-0.109,0.299-0.307,0.45-0.593,0.45c-0.177,0-0.315-0.048-0.414-0.143c-0.1-0.096-0.174-0.229-0.225-0.399
	c-0.051-0.171-0.084-0.376-0.098-0.614c-0.013-0.239-0.02-0.498-0.02-0.778C172.658,83.345,172.665,83.085,172.678,82.847
	 M171.349,84.893c0.068,0.361,0.184,0.665,0.347,0.91c0.164,0.246,0.386,0.428,0.665,0.548c0.28,0.119,0.632,0.176,1.054,0.168
	c0.402,0,0.742-0.063,1.018-0.189s0.499-0.31,0.67-0.552c0.171-0.243,0.294-0.545,0.368-0.906c0.075-0.361,0.113-0.777,0.113-1.248
	c0-0.477-0.034-0.898-0.102-1.263c-0.069-0.365-0.185-0.67-0.348-0.916c-0.164-0.245-0.386-0.427-0.665-0.547
	c-0.28-0.12-0.631-0.176-1.054-0.169c-0.402,0-0.742,0.064-1.018,0.189c-0.276,0.126-0.499,0.31-0.67,0.553
	c-0.171,0.242-0.294,0.544-0.368,0.905c-0.075,0.361-0.113,0.778-0.113,1.248C171.246,84.108,171.28,84.532,171.349,84.893
	 M168.968,86.376h1.412v-5.504h-1.412V86.376z M168.968,80.197h1.412V78.99h-1.412V80.197z M166.065,80.872h-0.716v0.962h0.716
	v3.151c0,0.279,0.017,0.511,0.051,0.696c0.035,0.184,0.097,0.332,0.189,0.445c0.092,0.112,0.224,0.192,0.394,0.24
	c0.171,0.048,0.396,0.072,0.675,0.072c0.164,0,0.319-0.008,0.466-0.021s0.298-0.028,0.455-0.041v-0.982
	c-0.047,0.007-0.098,0.012-0.154,0.015c-0.054,0.004-0.108,0.006-0.163,0.006c-0.205,0-0.339-0.046-0.404-0.139
	c-0.065-0.092-0.097-0.247-0.097-0.465v-2.977h0.818v-0.962h-0.818v-1.575h-1.412V80.872z M163.354,84.709
	c0,0.156-0.028,0.288-0.082,0.394c-0.055,0.105-0.125,0.192-0.21,0.26c-0.086,0.069-0.179,0.118-0.281,0.149
	c-0.102,0.03-0.202,0.046-0.297,0.046c-0.191,0-0.327-0.075-0.409-0.225c-0.082-0.151-0.123-0.331-0.123-0.542
	c0-0.246,0.062-0.44,0.184-0.584c0.123-0.143,0.328-0.245,0.614-0.306c0.088-0.021,0.187-0.054,0.297-0.098
	c0.108-0.044,0.211-0.104,0.307-0.179V84.709z M162.044,82.56v-0.153c0-0.218,0.055-0.392,0.164-0.522
	c0.108-0.13,0.272-0.194,0.491-0.194c0.238,0,0.407,0.059,0.506,0.179c0.099,0.12,0.149,0.284,0.149,0.496
	c0,0.184-0.041,0.324-0.123,0.419c-0.082,0.096-0.229,0.171-0.44,0.226l-0.798,0.214c-0.245,0.069-0.455,0.147-0.629,0.236
	c-0.174,0.089-0.317,0.199-0.43,0.332c-0.112,0.133-0.196,0.294-0.25,0.481c-0.056,0.187-0.082,0.411-0.082,0.67
	c0,0.184,0.023,0.37,0.072,0.558c0.047,0.187,0.122,0.356,0.225,0.506c0.102,0.15,0.238,0.273,0.409,0.368
	c0.17,0.095,0.378,0.143,0.624,0.143c0.34,0,0.619-0.048,0.834-0.143c0.214-0.095,0.404-0.286,0.567-0.573h0.021
	c0.02,0.095,0.042,0.193,0.066,0.292s0.06,0.192,0.108,0.281h1.35c-0.068-0.163-0.115-0.317-0.138-0.46
	c-0.025-0.143-0.036-0.345-0.036-0.604v-2.895c0-0.245-0.025-0.472-0.077-0.68c-0.051-0.208-0.148-0.387-0.291-0.537
	c-0.143-0.151-0.347-0.266-0.609-0.348c-0.263-0.082-0.602-0.123-1.018-0.123c-0.266,0-0.516,0.029-0.752,0.087
	c-0.235,0.058-0.439,0.154-0.613,0.287c-0.174,0.133-0.312,0.309-0.415,0.526c-0.102,0.218-0.153,0.484-0.153,0.798v0.133H162.044z
	 M159.968,82.857c0-0.655-0.166-1.173-0.497-1.555c-0.331-0.381-0.823-0.573-1.478-0.573c-0.327,0-0.628,0.044-0.9,0.133
	c-0.273,0.089-0.508,0.244-0.706,0.466s-0.352,0.518-0.46,0.89c-0.11,0.371-0.164,0.841-0.164,1.406
	c0,0.553,0.044,1.015,0.133,1.386c0.088,0.372,0.22,0.668,0.394,0.89s0.392,0.381,0.655,0.476c0.262,0.095,0.571,0.143,0.925,0.143
	c0.75,0,1.287-0.194,1.612-0.583c0.323-0.388,0.486-0.944,0.486-1.667h-1.351c0,0.45-0.055,0.777-0.163,0.982
	c-0.11,0.204-0.284,0.307-0.522,0.307c-0.158,0-0.286-0.036-0.384-0.108c-0.099-0.071-0.176-0.186-0.23-0.342
	c-0.055-0.157-0.092-0.356-0.112-0.599c-0.021-0.242-0.031-0.534-0.031-0.874c0-0.315,0.01-0.591,0.031-0.829
	c0.02-0.238,0.057-0.435,0.112-0.588c0.054-0.154,0.134-0.269,0.24-0.348c0.106-0.079,0.247-0.118,0.425-0.118
	c0.129,0,0.236,0.033,0.322,0.097c0.085,0.065,0.15,0.151,0.195,0.256c0.044,0.106,0.074,0.225,0.092,0.358
	c0.016,0.133,0.025,0.264,0.025,0.394H159.968z M153.466,86.376h1.412v-5.504h-1.412V86.376z M153.466,80.197h1.412V78.99h-1.412
	V80.197z M150.674,86.376h1.411v-4.542h0.819v-0.962h-0.819v-0.48c0-0.157,0.041-0.269,0.123-0.338s0.221-0.102,0.42-0.102h0.133
	c0.061,0,0.108,0.003,0.143,0.01v-1.003c-0.26-0.02-0.512-0.03-0.757-0.03c-0.225,0-0.43,0.022-0.614,0.066
	c-0.184,0.044-0.34,0.118-0.466,0.22c-0.126,0.102-0.224,0.239-0.291,0.409c-0.069,0.171-0.102,0.379-0.102,0.624v0.624h-0.716
	v0.962h0.716V86.376z M147.85,86.376h1.412v-5.504h-1.412V86.376z M147.85,80.197h1.412V78.99h-1.412V80.197z M144.947,80.872
	h-0.716v0.962h0.716v3.151c0,0.279,0.016,0.511,0.051,0.696c0.034,0.184,0.097,0.332,0.189,0.445
	c0.092,0.112,0.223,0.192,0.394,0.24c0.17,0.048,0.395,0.072,0.675,0.072c0.164,0,0.318-0.008,0.466-0.021
	c0.146-0.013,0.297-0.028,0.455-0.041v-0.982c-0.048,0.007-0.099,0.012-0.153,0.015c-0.056,0.004-0.11,0.006-0.164,0.006
	c-0.205,0-0.34-0.046-0.404-0.139c-0.066-0.092-0.097-0.247-0.097-0.465v-2.977h0.818v-0.962h-0.818v-1.575h-1.412V80.872z
	 M139.439,86.376h1.412v-3.652c0-0.607,0.248-0.91,0.747-0.91c0.21,0,0.364,0.056,0.46,0.168c0.095,0.113,0.143,0.312,0.143,0.599
	v3.795h1.412v-4.082c0-0.552-0.122-0.951-0.363-1.197c-0.243-0.245-0.589-0.368-1.039-0.368c-0.307,0-0.58,0.064-0.818,0.189
	c-0.239,0.126-0.434,0.326-0.583,0.599h-0.021v-0.645h-1.35V86.376z M137.061,84.709c0,0.156-0.028,0.288-0.082,0.394
	c-0.055,0.105-0.125,0.192-0.21,0.26c-0.085,0.069-0.179,0.118-0.281,0.149c-0.103,0.03-0.202,0.046-0.297,0.046
	c-0.191,0-0.327-0.075-0.409-0.225c-0.082-0.151-0.123-0.331-0.123-0.542c0-0.246,0.061-0.44,0.184-0.584
	c0.123-0.143,0.328-0.245,0.614-0.306c0.089-0.021,0.187-0.054,0.297-0.098c0.109-0.044,0.211-0.104,0.307-0.179V84.709z
	 M135.751,82.56v-0.153c0-0.218,0.054-0.392,0.164-0.522c0.109-0.13,0.273-0.194,0.491-0.194c0.238,0,0.407,0.059,0.506,0.179
	c0.099,0.12,0.149,0.284,0.149,0.496c0,0.184-0.041,0.324-0.123,0.419c-0.082,0.096-0.228,0.171-0.44,0.226l-0.798,0.214
	c-0.246,0.069-0.455,0.147-0.629,0.236c-0.174,0.089-0.317,0.199-0.43,0.332c-0.112,0.133-0.196,0.294-0.251,0.481
	c-0.054,0.187-0.081,0.411-0.081,0.67c0,0.184,0.023,0.37,0.071,0.558c0.048,0.187,0.123,0.356,0.225,0.506
	c0.103,0.15,0.239,0.273,0.409,0.368c0.171,0.095,0.379,0.143,0.625,0.143c0.34,0,0.618-0.048,0.833-0.143
	c0.215-0.095,0.404-0.286,0.568-0.573h0.021c0.02,0.095,0.042,0.193,0.066,0.292s0.059,0.192,0.107,0.281h1.351
	c-0.069-0.163-0.115-0.317-0.138-0.46c-0.024-0.143-0.036-0.345-0.036-0.604v-2.895c0-0.245-0.026-0.472-0.077-0.68
	c-0.051-0.208-0.148-0.387-0.291-0.537c-0.144-0.151-0.346-0.266-0.609-0.348s-0.602-0.123-1.018-0.123
	c-0.266,0-0.517,0.029-0.752,0.087c-0.235,0.058-0.44,0.154-0.614,0.287c-0.174,0.133-0.312,0.309-0.414,0.526
	c-0.102,0.218-0.153,0.484-0.153,0.798v0.133H135.751z M132.15,86.376h1.35v-5.504h-1.411v3.653c0,0.606-0.249,0.91-0.747,0.91
	c-0.212,0-0.365-0.056-0.46-0.169c-0.096-0.112-0.144-0.312-0.144-0.598v-3.796h-1.411v4.082c0,0.553,0.12,0.952,0.363,1.197
	c0.242,0.246,0.588,0.368,1.038,0.368c0.307,0,0.58-0.063,0.819-0.189c0.238-0.126,0.432-0.325,0.583-0.598h0.02V86.376z
	 M128.63,86.489l-0.788-0.798c0.239-0.348,0.392-0.775,0.461-1.279c0.068-0.504,0.102-1.067,0.102-1.688
	c0-0.552-0.026-1.062-0.077-1.529c-0.051-0.468-0.164-0.868-0.337-1.202c-0.174-0.335-0.425-0.596-0.752-0.783
	c-0.328-0.187-0.768-0.281-1.32-0.281s-0.992,0.094-1.32,0.281c-0.327,0.187-0.578,0.448-0.752,0.783
	c-0.174,0.334-0.286,0.734-0.337,1.202c-0.051,0.467-0.077,0.977-0.077,1.529c0,0.552,0.026,1.062,0.077,1.529
	c0.051,0.468,0.163,0.868,0.337,1.202c0.174,0.335,0.425,0.596,0.752,0.783c0.328,0.187,0.768,0.281,1.32,0.281
	c0.191,0,0.365-0.01,0.522-0.03c0.143-0.021,0.293-0.059,0.45-0.113l0.869,0.9L128.63,86.489z M124.942,81.476
	c0.024-0.341,0.072-0.621,0.143-0.839c0.072-0.218,0.174-0.376,0.307-0.476c0.133-0.099,0.309-0.148,0.527-0.148
	s0.394,0.049,0.527,0.148c0.133,0.1,0.235,0.258,0.307,0.476c0.071,0.218,0.119,0.498,0.143,0.839
	c0.023,0.341,0.036,0.757,0.036,1.248c0,0.491-0.013,0.908-0.036,1.253c-0.024,0.345-0.072,0.624-0.143,0.839
	c-0.072,0.215-0.174,0.371-0.307,0.471c-0.133,0.099-0.309,0.148-0.527,0.148s-0.394-0.049-0.527-0.148
	c-0.133-0.1-0.235-0.256-0.307-0.471c-0.071-0.215-0.119-0.494-0.143-0.839c-0.024-0.345-0.036-0.762-0.036-1.253
	C124.906,82.233,124.918,81.817,124.942,81.476"/>
<path fill="#00549F" d="M180.829,76.577h0.573c0.328,0,0.599-0.023,0.813-0.071c0.215-0.048,0.399-0.148,0.553-0.302
	c0.153-0.153,0.307-0.426,0.46-0.818c0.154-0.392,0.251-0.718,0.292-0.977l1.33-5.136h-1.412l-0.716,3.806h-0.021l-0.818-3.806
	h-1.473l1.545,5.504c-0.021,0.246-0.087,0.437-0.2,0.573c-0.112,0.136-0.299,0.204-0.557,0.204c-0.123,0-0.246-0.01-0.369-0.03
	V76.577z M177.794,69.273h-0.716v0.962h0.716v3.151c0,0.279,0.017,0.511,0.051,0.695c0.034,0.185,0.097,0.333,0.189,0.445
	c0.093,0.113,0.223,0.193,0.394,0.241s0.396,0.071,0.675,0.071c0.164,0,0.32-0.007,0.466-0.02c0.146-0.013,0.299-0.028,0.455-0.041
	v-0.982c-0.048,0.007-0.099,0.012-0.153,0.015s-0.11,0.005-0.164,0.005c-0.205,0-0.34-0.046-0.404-0.138
	c-0.064-0.092-0.097-0.247-0.097-0.465v-2.977h0.818v-0.962h-0.818v-1.575h-1.412V69.273z M172.286,74.777h1.412v-3.652
	c0-0.607,0.248-0.911,0.747-0.911c0.211,0,0.365,0.057,0.46,0.169c0.095,0.113,0.143,0.312,0.143,0.599v3.795h1.412v-4.082
	c0-0.552-0.121-0.951-0.363-1.197c-0.243-0.245-0.588-0.368-1.039-0.368c-0.306,0-0.58,0.063-0.818,0.189
	c-0.238,0.126-0.433,0.326-0.583,0.599h-0.02v-0.645h-1.351V74.777z M169.848,74.777h1.412v-5.504h-1.412V74.777z M169.848,68.598
	h1.412v-1.207h-1.412V68.598z M167.436,73.11c0,0.156-0.027,0.288-0.082,0.393c-0.054,0.106-0.124,0.193-0.209,0.261
	c-0.085,0.069-0.179,0.118-0.282,0.149c-0.102,0.03-0.2,0.046-0.296,0.046c-0.191,0-0.328-0.075-0.41-0.225
	c-0.082-0.151-0.122-0.331-0.122-0.543c0-0.245,0.061-0.44,0.184-0.583c0.122-0.143,0.327-0.245,0.614-0.307
	c0.089-0.02,0.188-0.053,0.296-0.097c0.11-0.044,0.212-0.104,0.307-0.179V73.11z M166.127,70.961v-0.153
	c0-0.218,0.055-0.392,0.163-0.522c0.11-0.13,0.273-0.194,0.491-0.194c0.24,0,0.409,0.059,0.507,0.179
	c0.099,0.119,0.148,0.284,0.148,0.496c0,0.184-0.041,0.324-0.123,0.419s-0.228,0.171-0.44,0.225l-0.798,0.215
	c-0.245,0.069-0.455,0.146-0.629,0.235c-0.174,0.089-0.317,0.2-0.429,0.333c-0.113,0.133-0.196,0.294-0.251,0.481
	c-0.054,0.187-0.082,0.411-0.082,0.67c0,0.184,0.025,0.37,0.072,0.557c0.048,0.188,0.123,0.356,0.225,0.507
	c0.102,0.15,0.239,0.273,0.409,0.368c0.171,0.095,0.379,0.143,0.624,0.143c0.342,0,0.619-0.048,0.834-0.143s0.404-0.286,0.568-0.573
	h0.02c0.021,0.095,0.043,0.192,0.067,0.292c0.024,0.099,0.06,0.192,0.107,0.281h1.35c-0.067-0.164-0.113-0.317-0.138-0.46
	c-0.023-0.144-0.036-0.345-0.036-0.604v-2.895c0-0.246-0.025-0.473-0.076-0.68c-0.051-0.208-0.149-0.387-0.292-0.537
	c-0.143-0.151-0.346-0.266-0.609-0.348c-0.261-0.082-0.601-0.123-1.017-0.123c-0.266,0-0.517,0.029-0.752,0.087
	c-0.236,0.058-0.44,0.153-0.614,0.286s-0.312,0.309-0.414,0.527c-0.103,0.218-0.154,0.484-0.154,0.798v0.133H166.127z
	 M161.957,69.273h-0.716v0.962h0.716v3.151c0,0.279,0.017,0.511,0.051,0.695c0.035,0.185,0.097,0.333,0.189,0.445
	c0.092,0.113,0.224,0.193,0.394,0.241c0.171,0.048,0.396,0.071,0.676,0.071c0.163,0,0.319-0.007,0.465-0.02
	c0.147-0.013,0.299-0.028,0.455-0.041v-0.982c-0.047,0.007-0.098,0.012-0.152,0.015c-0.056,0.003-0.11,0.005-0.165,0.005
	c-0.205,0-0.339-0.046-0.404-0.138c-0.065-0.092-0.097-0.247-0.097-0.465v-2.977h0.818v-0.962h-0.818v-1.575h-1.412V69.273z
	 M157.94,74.777h1.411v-3.304c0-0.184,0.031-0.34,0.092-0.466c0.062-0.126,0.144-0.228,0.246-0.307
	c0.102-0.078,0.215-0.135,0.337-0.168c0.123-0.034,0.246-0.052,0.369-0.052c0.074,0,0.148,0.002,0.22,0.005
	c0.071,0.004,0.144,0.009,0.22,0.016V69.15c-0.041-0.007-0.084-0.012-0.128-0.015c-0.045-0.003-0.087-0.005-0.128-0.005
	c-0.294,0-0.542,0.08-0.747,0.24c-0.205,0.161-0.378,0.374-0.522,0.64h-0.02v-0.737h-1.35V74.777z M154.328,71.401v-0.215
	c0-0.13,0.012-0.259,0.036-0.388c0.024-0.13,0.063-0.248,0.118-0.353c0.054-0.106,0.128-0.192,0.22-0.256
	c0.092-0.065,0.209-0.097,0.353-0.097c0.143,0,0.261,0.028,0.353,0.087c0.092,0.058,0.163,0.143,0.214,0.255
	c0.052,0.113,0.087,0.249,0.108,0.41c0.02,0.16,0.034,0.345,0.041,0.557H154.328z M157.121,72.24v-0.317
	c0-0.423-0.027-0.806-0.082-1.151c-0.055-0.345-0.157-0.637-0.307-0.88c-0.15-0.242-0.357-0.429-0.619-0.562
	c-0.262-0.133-0.598-0.2-1.007-0.2c-0.478,0-0.859,0.079-1.146,0.235c-0.286,0.157-0.506,0.369-0.66,0.635
	c-0.153,0.266-0.256,0.569-0.307,0.91c-0.051,0.341-0.076,0.696-0.076,1.064c0,0.341,0.015,0.687,0.046,1.038
	c0.03,0.351,0.113,0.668,0.25,0.952c0.136,0.283,0.348,0.513,0.635,0.69c0.286,0.177,0.685,0.266,1.196,0.266
	c0.676,0,1.17-0.172,1.484-0.516c0.313-0.345,0.484-0.837,0.511-1.479h-1.268c-0.041,0.348-0.117,0.607-0.225,0.778
	c-0.11,0.171-0.284,0.256-0.522,0.256c-0.13,0-0.239-0.036-0.327-0.108c-0.089-0.071-0.161-0.167-0.215-0.286
	c-0.055-0.12-0.094-0.256-0.118-0.409c-0.024-0.154-0.036-0.312-0.036-0.476v-0.44H157.121z M152.298,71.258
	c0-0.655-0.166-1.174-0.496-1.555c-0.332-0.382-0.824-0.573-1.479-0.573c-0.327,0-0.628,0.044-0.9,0.133
	c-0.273,0.089-0.508,0.243-0.706,0.465s-0.352,0.519-0.46,0.89c-0.11,0.372-0.164,0.841-0.164,1.407
	c0,0.553,0.044,1.015,0.133,1.386c0.088,0.372,0.22,0.668,0.394,0.89c0.174,0.222,0.392,0.381,0.655,0.476
	c0.262,0.095,0.571,0.143,0.926,0.143c0.749,0,1.286-0.194,1.611-0.583c0.323-0.389,0.486-0.944,0.486-1.667h-1.351
	c0,0.45-0.055,0.777-0.163,0.982c-0.11,0.204-0.284,0.307-0.522,0.307c-0.158,0-0.286-0.036-0.384-0.108
	c-0.099-0.071-0.176-0.186-0.23-0.343c-0.055-0.156-0.092-0.356-0.112-0.598c-0.021-0.242-0.031-0.534-0.031-0.875
	c0-0.314,0.01-0.59,0.031-0.828c0.02-0.239,0.057-0.435,0.112-0.589c0.054-0.153,0.134-0.269,0.24-0.347
	c0.106-0.079,0.247-0.118,0.425-0.118c0.129,0,0.236,0.033,0.322,0.097c0.085,0.065,0.15,0.151,0.195,0.256
	c0.044,0.105,0.074,0.225,0.092,0.358c0.016,0.133,0.025,0.264,0.025,0.394H152.298z M143.108,74.777h1.412v-3.652
	c0-0.607,0.248-0.911,0.747-0.911c0.21,0,0.364,0.057,0.46,0.169c0.095,0.113,0.143,0.312,0.143,0.599v3.795h1.412v-4.082
	c0-0.552-0.122-0.951-0.363-1.197c-0.243-0.245-0.589-0.368-1.039-0.368c-0.307,0-0.58,0.063-0.818,0.189
	c-0.239,0.126-0.434,0.326-0.583,0.599h-0.021v-0.645h-1.35V74.777z M137.455,67.473v5.094c0,0.491,0.064,0.888,0.194,1.192
	c0.129,0.304,0.303,0.542,0.522,0.716c0.218,0.174,0.466,0.292,0.747,0.353c0.279,0.062,0.569,0.092,0.869,0.092
	s0.59-0.036,0.87-0.107c0.279-0.072,0.528-0.197,0.747-0.374c0.218-0.177,0.391-0.417,0.521-0.721
	c0.129-0.304,0.195-0.687,0.195-1.151v-5.094h-1.473v5.094c0,0.184-0.013,0.353-0.036,0.507c-0.025,0.153-0.069,0.286-0.133,0.399
	c-0.066,0.112-0.154,0.201-0.266,0.266c-0.113,0.064-0.255,0.097-0.425,0.097c-0.178,0-0.321-0.033-0.429-0.097
	c-0.11-0.065-0.197-0.154-0.261-0.266c-0.066-0.113-0.11-0.246-0.133-0.399c-0.025-0.154-0.036-0.323-0.036-0.507v-5.094H137.455z
	 M131.644,74.777h1.412v-3.304c0-0.184,0.031-0.34,0.092-0.466c0.061-0.126,0.143-0.228,0.246-0.307
	c0.102-0.078,0.214-0.135,0.337-0.168c0.123-0.034,0.246-0.052,0.368-0.052c0.075,0,0.149,0.002,0.22,0.005
	c0.072,0.004,0.145,0.009,0.22,0.016V69.15c-0.041-0.007-0.084-0.012-0.128-0.015c-0.045-0.003-0.086-0.005-0.127-0.005
	c-0.294,0-0.543,0.08-0.747,0.24c-0.205,0.161-0.379,0.374-0.522,0.64h-0.02v-0.737h-1.351V74.777z M127.917,71.248
	c0.014-0.239,0.046-0.443,0.098-0.614c0.051-0.171,0.125-0.304,0.225-0.399c0.098-0.095,0.236-0.143,0.414-0.143
	c0.286,0,0.484,0.15,0.593,0.45c0.109,0.3,0.164,0.795,0.164,1.483c0,0.689-0.055,1.184-0.164,1.483
	c-0.109,0.3-0.307,0.451-0.593,0.451c-0.178,0-0.316-0.048-0.414-0.144c-0.1-0.095-0.174-0.228-0.225-0.399
	c-0.052-0.17-0.084-0.375-0.098-0.613c-0.014-0.239-0.02-0.499-0.02-0.778C127.897,71.746,127.903,71.486,127.917,71.248
	 M126.588,73.294c0.067,0.361,0.184,0.665,0.347,0.91c0.164,0.246,0.385,0.428,0.665,0.547c0.28,0.12,0.63,0.176,1.054,0.169
	c0.402,0,0.742-0.063,1.018-0.189c0.276-0.126,0.499-0.31,0.67-0.552c0.17-0.243,0.293-0.545,0.368-0.906
	c0.075-0.361,0.113-0.777,0.113-1.248c0-0.478-0.035-0.898-0.103-1.263c-0.068-0.365-0.184-0.67-0.347-0.916
	c-0.164-0.245-0.386-0.427-0.665-0.547c-0.281-0.12-0.632-0.176-1.054-0.169c-0.403,0-0.742,0.063-1.018,0.189
	c-0.276,0.126-0.5,0.31-0.67,0.553c-0.171,0.242-0.294,0.544-0.368,0.905c-0.076,0.361-0.113,0.778-0.113,1.248
	C126.485,72.509,126.519,72.933,126.588,73.294 M123.852,74.777h1.412v-4.542h0.818v-0.962h-0.818v-0.481
	c0-0.156,0.041-0.269,0.123-0.337c0.081-0.069,0.222-0.102,0.419-0.102h0.133c0.061,0,0.109,0.003,0.143,0.01V67.36
	c-0.259-0.02-0.511-0.03-0.757-0.03c-0.225,0-0.43,0.022-0.614,0.066c-0.184,0.044-0.339,0.118-0.465,0.22s-0.223,0.238-0.292,0.409
	c-0.068,0.171-0.102,0.379-0.102,0.624v0.624h-0.716v0.962h0.716V74.777z"/>
<path fill="#00549F" d="M172.363,61.377v0.194c0,0.266,0.031,0.506,0.092,0.721c0.062,0.215,0.169,0.399,0.322,0.553
	c0.154,0.153,0.361,0.271,0.619,0.352c0.26,0.082,0.591,0.123,0.993,0.123c0.293,0,0.566-0.036,0.818-0.107
	c0.253-0.072,0.47-0.179,0.65-0.322c0.181-0.144,0.322-0.325,0.424-0.543c0.103-0.218,0.154-0.47,0.154-0.757
	c0-0.416-0.092-0.744-0.276-0.987c-0.185-0.242-0.498-0.438-0.942-0.588l-0.849-0.287c-0.238-0.074-0.4-0.166-0.486-0.276
	c-0.085-0.109-0.128-0.232-0.128-0.368c0-0.197,0.067-0.346,0.2-0.445c0.133-0.099,0.288-0.148,0.465-0.148
	c0.233,0,0.394,0.066,0.486,0.199c0.092,0.133,0.138,0.343,0.138,0.629h1.269v-0.225c0-0.498-0.153-0.883-0.46-1.156
	c-0.307-0.273-0.781-0.409-1.422-0.409c-0.361,0-0.67,0.044-0.926,0.133c-0.256,0.089-0.466,0.208-0.629,0.358
	c-0.164,0.15-0.283,0.325-0.358,0.527c-0.075,0.201-0.113,0.414-0.113,0.639c0,0.389,0.099,0.708,0.297,0.957
	c0.198,0.248,0.491,0.442,0.88,0.578l0.992,0.358c0.137,0.054,0.256,0.128,0.358,0.22c0.102,0.092,0.153,0.227,0.153,0.404
	c0,0.218-0.064,0.381-0.194,0.491c-0.129,0.109-0.303,0.164-0.522,0.164c-0.238,0-0.42-0.074-0.547-0.22
	c-0.126-0.147-0.189-0.34-0.189-0.578v-0.184H172.363z M171.756,59.658c0-0.655-0.165-1.174-0.497-1.555
	c-0.33-0.382-0.823-0.573-1.478-0.573c-0.327,0-0.627,0.044-0.9,0.133c-0.272,0.089-0.508,0.243-0.706,0.465
	c-0.197,0.222-0.351,0.519-0.46,0.89c-0.109,0.372-0.164,0.841-0.164,1.407c0,0.553,0.045,1.015,0.133,1.386
	c0.089,0.372,0.22,0.668,0.394,0.89s0.393,0.381,0.655,0.476c0.262,0.095,0.571,0.143,0.925,0.143c0.751,0,1.288-0.194,1.612-0.583
	s0.486-0.944,0.486-1.667h-1.351c0,0.45-0.054,0.777-0.164,0.982c-0.108,0.204-0.282,0.307-0.521,0.307
	c-0.157,0-0.285-0.036-0.384-0.108c-0.098-0.071-0.175-0.186-0.23-0.343c-0.054-0.156-0.092-0.356-0.113-0.598
	c-0.02-0.242-0.03-0.534-0.03-0.875c0-0.314,0.01-0.59,0.03-0.828c0.021-0.239,0.059-0.435,0.113-0.589
	c0.055-0.153,0.135-0.269,0.24-0.347c0.107-0.079,0.248-0.118,0.425-0.118c0.13,0,0.237,0.033,0.322,0.097
	c0.086,0.065,0.151,0.151,0.195,0.256c0.045,0.105,0.075,0.225,0.092,0.358s0.025,0.264,0.025,0.394H171.756z M165.283,63.177h1.412
	v-5.504h-1.412V63.177z M165.283,56.998h1.412v-1.207h-1.412V56.998z M162.38,57.673h-0.716v0.962h0.716v3.151
	c0,0.279,0.017,0.511,0.051,0.695c0.035,0.184,0.097,0.333,0.189,0.445c0.092,0.113,0.224,0.193,0.394,0.241
	c0.171,0.048,0.396,0.071,0.675,0.071c0.164,0,0.319-0.007,0.466-0.02c0.147-0.013,0.298-0.028,0.455-0.041v-0.982
	c-0.047,0.007-0.098,0.012-0.154,0.015c-0.054,0.003-0.108,0.005-0.163,0.005c-0.205,0-0.339-0.046-0.404-0.138
	s-0.098-0.247-0.098-0.465v-2.977h0.819v-0.962h-0.819v-1.575h-1.411V57.673z M159.669,61.51c0,0.156-0.028,0.288-0.082,0.393
	c-0.055,0.106-0.125,0.193-0.21,0.261c-0.086,0.069-0.179,0.118-0.281,0.149c-0.102,0.03-0.202,0.046-0.297,0.046
	c-0.191,0-0.327-0.075-0.409-0.225c-0.082-0.151-0.123-0.331-0.123-0.543c0-0.245,0.062-0.44,0.184-0.583
	c0.123-0.143,0.328-0.245,0.614-0.307c0.088-0.02,0.187-0.053,0.297-0.097c0.108-0.044,0.211-0.104,0.307-0.179V61.51z
	 M158.359,59.361v-0.153c0-0.218,0.054-0.392,0.164-0.522c0.108-0.13,0.272-0.194,0.491-0.194c0.238,0,0.407,0.059,0.506,0.179
	c0.099,0.119,0.149,0.284,0.149,0.496c0,0.184-0.041,0.324-0.123,0.419c-0.082,0.095-0.229,0.171-0.44,0.225l-0.798,0.215
	c-0.245,0.069-0.455,0.146-0.629,0.235c-0.174,0.089-0.317,0.2-0.43,0.333c-0.112,0.133-0.196,0.294-0.25,0.481
	c-0.056,0.187-0.082,0.411-0.082,0.67c0,0.184,0.023,0.37,0.071,0.557c0.048,0.188,0.123,0.356,0.225,0.507
	c0.103,0.15,0.239,0.273,0.41,0.368c0.17,0.095,0.378,0.143,0.624,0.143c0.34,0,0.619-0.048,0.833-0.143
	c0.215-0.095,0.405-0.286,0.568-0.573h0.021c0.02,0.095,0.042,0.192,0.066,0.292c0.024,0.099,0.06,0.192,0.108,0.281h1.35
	c-0.069-0.164-0.115-0.317-0.138-0.46c-0.025-0.144-0.036-0.345-0.036-0.604v-2.895c0-0.246-0.026-0.473-0.077-0.68
	c-0.051-0.208-0.148-0.387-0.291-0.537c-0.143-0.151-0.347-0.266-0.609-0.348c-0.263-0.082-0.602-0.123-1.018-0.123
	c-0.266,0-0.516,0.029-0.752,0.087c-0.235,0.058-0.44,0.153-0.613,0.286c-0.174,0.133-0.313,0.309-0.415,0.527
	c-0.102,0.218-0.153,0.484-0.153,0.798v0.133H158.359z M149.314,63.177h1.412v-3.621c0-0.328,0.066-0.566,0.199-0.717
	c0.133-0.15,0.312-0.225,0.537-0.225c0.198,0,0.339,0.062,0.425,0.185c0.085,0.122,0.128,0.299,0.128,0.532v3.846h1.411v-3.621
	c0-0.328,0.067-0.566,0.2-0.717c0.133-0.15,0.312-0.225,0.537-0.225c0.197,0,0.339,0.062,0.424,0.185
	c0.085,0.122,0.128,0.299,0.128,0.532v3.846h1.412v-4c0-0.532-0.111-0.939-0.332-1.222c-0.222-0.284-0.568-0.425-1.039-0.425
	c-0.334,0-0.623,0.074-0.864,0.22c-0.243,0.146-0.419,0.366-0.527,0.66h-0.021c-0.075-0.287-0.224-0.505-0.445-0.655
	c-0.222-0.15-0.496-0.225-0.823-0.225c-0.307,0-0.572,0.054-0.793,0.164c-0.222,0.109-0.421,0.289-0.598,0.542h-0.021v-0.563h-1.35
	V63.177z M145.703,59.801v-0.215c0-0.13,0.011-0.259,0.035-0.388c0.024-0.13,0.063-0.248,0.118-0.353
	c0.054-0.106,0.128-0.192,0.22-0.256c0.092-0.065,0.21-0.097,0.353-0.097c0.143,0,0.261,0.028,0.353,0.087
	c0.092,0.058,0.164,0.143,0.215,0.255c0.051,0.113,0.087,0.249,0.107,0.41c0.021,0.16,0.034,0.345,0.041,0.557H145.703z
	 M148.495,60.64v-0.317c0-0.423-0.027-0.806-0.081-1.151c-0.056-0.345-0.158-0.637-0.307-0.88c-0.151-0.242-0.357-0.43-0.619-0.562
	c-0.263-0.133-0.599-0.2-1.008-0.2c-0.478,0-0.859,0.079-1.146,0.235c-0.286,0.157-0.506,0.369-0.659,0.635
	c-0.154,0.266-0.256,0.569-0.307,0.91c-0.052,0.341-0.077,0.696-0.077,1.064c0,0.341,0.015,0.687,0.046,1.038
	c0.031,0.351,0.113,0.668,0.251,0.952c0.136,0.283,0.347,0.513,0.634,0.69c0.286,0.177,0.685,0.266,1.197,0.266
	c0.675,0,1.169-0.172,1.483-0.516c0.313-0.345,0.484-0.837,0.512-1.479h-1.269c-0.041,0.348-0.117,0.607-0.225,0.778
	c-0.109,0.171-0.283,0.256-0.522,0.256c-0.13,0-0.239-0.036-0.327-0.108c-0.089-0.071-0.161-0.167-0.215-0.286
	c-0.055-0.12-0.094-0.256-0.118-0.409c-0.024-0.154-0.035-0.312-0.035-0.476v-0.44H148.495z M139.294,63.177h1.411v-3.652
	c0-0.607,0.249-0.911,0.747-0.911c0.211,0,0.364,0.057,0.46,0.169c0.096,0.113,0.144,0.312,0.144,0.599v3.795h1.411v-4.082
	c0-0.552-0.121-0.951-0.363-1.197c-0.242-0.245-0.588-0.368-1.038-0.368c-0.621,0-1.068,0.235-1.34,0.706h-0.021v-2.363h-1.411
	V63.177z M136.443,57.673h-0.716v0.962h0.716v3.151c0,0.279,0.017,0.511,0.052,0.695c0.033,0.184,0.097,0.333,0.189,0.445
	c0.092,0.113,0.223,0.193,0.394,0.241c0.17,0.048,0.395,0.071,0.675,0.071c0.164,0,0.318-0.007,0.465-0.02
	c0.147-0.013,0.298-0.028,0.456-0.041v-0.982c-0.049,0.007-0.1,0.012-0.154,0.015c-0.055,0.003-0.109,0.005-0.164,0.005
	c-0.204,0-0.339-0.046-0.404-0.138c-0.065-0.092-0.097-0.247-0.097-0.465v-2.977h0.819v-0.962h-0.819v-1.575h-1.412V57.673z
	 M133.731,61.51c0,0.156-0.027,0.288-0.081,0.393c-0.056,0.106-0.125,0.193-0.21,0.261c-0.086,0.069-0.179,0.118-0.281,0.149
	c-0.103,0.03-0.202,0.046-0.297,0.046c-0.191,0-0.327-0.075-0.409-0.225c-0.082-0.151-0.123-0.331-0.123-0.543
	c0-0.245,0.061-0.44,0.184-0.583c0.123-0.143,0.327-0.245,0.614-0.307c0.088-0.02,0.187-0.053,0.297-0.097
	c0.108-0.044,0.21-0.104,0.306-0.179V61.51z M132.422,59.361v-0.153c0-0.218,0.054-0.392,0.164-0.522
	c0.108-0.13,0.272-0.194,0.491-0.194c0.238,0,0.407,0.059,0.506,0.179c0.098,0.119,0.148,0.284,0.148,0.496
	c0,0.184-0.04,0.324-0.122,0.419c-0.082,0.095-0.229,0.171-0.44,0.225l-0.798,0.215c-0.246,0.069-0.455,0.146-0.629,0.235
	c-0.174,0.089-0.317,0.2-0.43,0.333c-0.113,0.133-0.196,0.294-0.251,0.481s-0.081,0.411-0.081,0.67c0,0.184,0.023,0.37,0.071,0.557
	c0.047,0.188,0.123,0.356,0.225,0.507c0.103,0.15,0.239,0.273,0.409,0.368c0.17,0.095,0.379,0.143,0.624,0.143
	c0.341,0,0.619-0.048,0.834-0.143c0.215-0.095,0.404-0.286,0.568-0.573h0.02c0.021,0.095,0.042,0.192,0.067,0.292
	c0.023,0.099,0.059,0.192,0.107,0.281h1.351c-0.069-0.164-0.115-0.317-0.138-0.46c-0.025-0.144-0.036-0.345-0.036-0.604v-2.895
	c0-0.246-0.026-0.473-0.077-0.68c-0.051-0.208-0.148-0.387-0.291-0.537c-0.144-0.151-0.347-0.266-0.609-0.348
	c-0.263-0.082-0.603-0.123-1.018-0.123c-0.266,0-0.517,0.029-0.752,0.087c-0.235,0.058-0.44,0.153-0.614,0.286
	c-0.174,0.133-0.312,0.309-0.414,0.527c-0.102,0.218-0.154,0.484-0.154,0.798v0.133H132.422z M123.617,63.177h1.35v-5.831h0.021
	l1.299,5.831h1.146l1.299-5.831h0.02v5.831h1.351v-7.304h-2.179l-1.054,5.156h-0.02l-1.044-5.156h-2.189V63.177z"/>
<path fill="#F6A800" d="M115.885,85.464l-3.083-3.123c0.934-1.362,1.535-3.031,1.803-5.006c0.266-1.975,0.4-4.178,0.4-6.607
	c0-2.162-0.101-4.157-0.301-5.986c-0.2-1.828-0.64-3.397-1.321-4.705c-0.681-1.307-1.662-2.329-2.943-3.064
	c-1.282-0.733-3.004-1.101-5.165-1.101c-2.163,0-3.884,0.368-5.166,1.101c-1.281,0.735-2.262,1.757-2.943,3.064
	c-0.681,1.308-1.122,2.877-1.321,4.705c-0.201,1.829-0.301,3.824-0.301,5.986s0.1,4.158,0.301,5.986
	c0.199,1.829,0.64,3.397,1.321,4.705c0.681,1.308,1.662,2.329,2.943,3.064c1.282,0.733,3.003,1.101,5.166,1.101
	c0.747,0,1.427-0.04,2.042-0.12c0.56-0.081,1.147-0.227,1.761-0.441l3.404,3.524L115.885,85.464z M101.451,65.843
	c0.093-1.334,0.28-2.429,0.56-3.283c0.281-0.854,0.681-1.475,1.201-1.862c0.521-0.387,1.208-0.581,2.063-0.581
	c0.853,0,1.542,0.194,2.061,0.581c0.521,0.387,0.922,1.008,1.202,1.862c0.281,0.854,0.467,1.949,0.561,3.283
	c0.093,1.335,0.14,2.963,0.14,4.885s-0.047,3.557-0.14,4.905c-0.094,1.348-0.28,2.443-0.561,3.284
	c-0.28,0.841-0.681,1.455-1.202,1.842c-0.519,0.387-1.208,0.58-2.061,0.58c-0.855,0-1.542-0.193-2.063-0.58
	c-0.52-0.387-0.92-1.001-1.201-1.842c-0.28-0.841-0.467-1.936-0.56-3.284c-0.094-1.348-0.14-2.983-0.14-4.905
	S101.357,67.178,101.451,65.843 M74.242,56.433v19.941c0,1.922,0.254,3.478,0.761,4.665c0.507,1.188,1.187,2.122,2.042,2.802
	c0.854,0.682,1.828,1.142,2.923,1.382c1.094,0.241,2.229,0.361,3.403,0.361c1.175,0,2.309-0.141,3.404-0.421
	c1.094-0.28,2.068-0.767,2.924-1.461c0.854-0.694,1.534-1.636,2.042-2.823c0.506-1.188,0.761-2.69,0.761-4.505V56.433h-5.767v19.941
	c0,0.721-0.047,1.381-0.14,1.982c-0.094,0.6-0.267,1.121-0.521,1.562c-0.254,0.44-0.6,0.788-1.04,1.041
	c-0.441,0.254-0.996,0.38-1.663,0.38c-0.694,0-1.255-0.126-1.682-0.38c-0.426-0.253-0.767-0.601-1.02-1.041
	c-0.254-0.441-0.427-0.962-0.521-1.562c-0.093-0.601-0.14-1.261-0.14-1.982V56.433H74.242z"/>
<path fill="#F6A800" d="M65.512,75.8h-4.776v10.575h-1.023V75.8h-4.777v10.576h10.576V75.8z M60.736,74.777h4.776V64.2h-4.776
	V74.777z M35.492,75.8h-4.794v4.776h4.794V75.8z M30.699,74.777h4.794v-4.776h-4.794V74.777z M35.492,64.2h-4.794v4.776h4.794V64.2z
	 M36.515,86.375h-1.023V81.6h-4.793v4.776H41.31V81.6h-4.795V86.375z M47.119,57.4H36.516v4.754h10.603V57.4z M36.515,56.377h10.603
	v-4.792H36.515V56.377z M36.515,74.777h4.795v-4.776h-4.795V74.777z M41.31,75.8h-4.794v4.776h4.794V75.8z M36.515,68.978h4.795
	v-4.776h-4.795V68.978z M47.119,64.2h-4.787v4.776h4.787V64.2z M47.119,70.001h-4.787v4.776h4.787V70.001z M47.119,75.8h-4.787
	v4.776h4.787V75.8z M47.119,45.772H36.516v4.792h10.603V45.772z M47.119,81.6h-4.787v4.776h4.787V81.6z M59.713,64.2h-4.776v10.577
	h4.776V64.2z M53.913,75.8h-4.749v10.576h4.749V75.8z M49.165,74.777h4.749V64.2h-4.749V74.777z M59.713,51.587H49.165v10.569
	h10.548V51.587z M29.676,81.6h-4.732v4.776h4.732V81.6z M29.676,75.8h-4.732v4.776h4.732V75.8z M29.676,70.001h-4.732v4.776h4.732
	V70.001z M29.676,64.2h-4.732v4.776h4.732V64.2z M35.492,57.4H24.944v4.754h10.548V57.4z M35.492,51.587H24.944v4.792h10.548V51.587
	z M35.492,45.772H24.944v4.792h10.548V45.772z M35.492,39.979H24.944v4.77h10.548V39.979z M47.119,39.979H36.516v4.77h10.603V39.979
	z M59.713,39.979H49.165v10.585h10.548V39.979z M71.341,86.376V39.979H60.736v10.585H71.34v1.023H60.736v10.567H71.34V64.2h-4.805
	v10.577h4.805V75.8h-4.805v10.576H71.341z"/>
<path fill="#FFFFFF" d="M65.512,74.777h-4.776V64.2h4.776V74.777z M59.713,62.154H49.166V51.585h10.547V62.154z M47.119,62.154
	H36.516V57.4h10.603V62.154z M47.119,56.377H36.516v-4.792h10.603V56.377z M47.119,50.563H36.516v-4.792h10.603V50.563z
	 M35.492,68.978h-4.794v-4.776h4.794V68.978z M30.699,70.001h4.794v4.776h-4.794V70.001z M30.699,75.8h4.794v4.776h-4.794V75.8z
	 M36.515,64.2h4.794v4.776h-4.794V64.2z M36.515,70.001h4.794v4.776h-4.794V70.001z M36.515,75.8h4.794v4.776h-4.794V75.8z
	 M42.333,64.2h4.787v4.776h-4.787V64.2z M42.333,70.001h4.787v4.776h-4.787V70.001z M42.333,75.8h4.787v4.776h-4.787V75.8z
	 M49.165,64.2h4.749v10.577h-4.749V64.2z M54.936,64.2h4.776v10.577h-4.776V64.2z M66.535,74.777V64.2h4.805v-2.046H60.736V51.586
	H71.34v-1.023H60.736V39.978h-1.023v10.585H49.165V39.978h-2.046v4.771H36.515v-4.771h-1.023v4.771H24.944v1.023h10.548v4.791
	H24.944v1.023h10.548v4.791H24.944V57.4h10.548v4.754H24.944V64.2h4.732v4.778h-4.732v1.023h4.732v4.776h-4.732V75.8h4.732v4.776
	h-4.732v1.023h4.732v4.777h1.023v-4.777h4.793v4.776h1.023v-4.776h4.795v4.777h1.023v-4.777h4.786v4.777h2.046V75.8h4.748v10.576
	h1.023V75.8h4.777v10.575h1.023V75.8h4.776v10.576h1.023V75.8h4.805v-1.023H66.535z"/>
</svg>
